<mxfile host="Electron" modified="2023-05-15T12:28:51.702Z" agent="Mozilla/5.0 (Windows NT 10.0; Win64; x64) AppleWebKit/537.36 (KHTML, like Gecko) draw.io/21.2.1 Chrome/112.0.5615.87 Electron/24.1.2 Safari/537.36" etag="bRVrA5QLNCJpoYoFl0h1" version="21.2.1" type="device">
  <diagram name="第 1 页" id="ZBQ79xT0Glzy3_Wm0mf0">
    <mxGraphModel dx="898" dy="579" grid="1" gridSize="10" guides="1" tooltips="1" connect="1" arrows="1" fold="1" page="1" pageScale="1" pageWidth="827" pageHeight="1169" math="0" shadow="0">
      <root>
        <mxCell id="0" />
        <mxCell id="1" parent="0" />
        <mxCell id="Vm2VVOkwEpax3afobAr5-7" style="edgeStyle=orthogonalEdgeStyle;rounded=0;orthogonalLoop=1;jettySize=auto;html=1;exitX=0.5;exitY=0;exitDx=0;exitDy=0;entryX=0.5;entryY=0;entryDx=0;entryDy=0;strokeWidth=2;" edge="1" parent="1" source="Vm2VVOkwEpax3afobAr5-1" target="Vm2VVOkwEpax3afobAr5-4">
          <mxGeometry relative="1" as="geometry">
            <Array as="points">
              <mxPoint x="240" y="180" />
              <mxPoint x="545" y="180" />
            </Array>
          </mxGeometry>
        </mxCell>
        <mxCell id="Vm2VVOkwEpax3afobAr5-1" value="" style="rounded=0;whiteSpace=wrap;html=1;align=left;strokeWidth=2;" vertex="1" parent="1">
          <mxGeometry x="120" y="240" width="240" height="120" as="geometry" />
        </mxCell>
        <mxCell id="Vm2VVOkwEpax3afobAr5-2" value="&lt;br&gt;&lt;b style=&quot;border-color: var(--border-color); color: rgb(0, 0, 0); font-family: Helvetica; font-style: normal; font-variant-ligatures: normal; font-variant-caps: normal; letter-spacing: normal; orphans: 2; text-indent: 0px; text-transform: none; widows: 2; word-spacing: 0px; -webkit-text-stroke-width: 0px; background-color: rgb(251, 251, 251); text-decoration-thickness: initial; text-decoration-style: initial; text-decoration-color: initial; font-size: 18px;&quot;&gt;{&lt;br style=&quot;border-color: var(--border-color);&quot;&gt;&lt;span style=&quot;border-color: var(--border-color);&quot;&gt;	&lt;/span&gt;&lt;span style=&quot;white-space: pre;&quot;&gt;	&lt;/span&gt;id: 3,&lt;br style=&quot;border-color: var(--border-color);&quot;&gt;&lt;span style=&quot;white-space: pre;&quot;&gt;	&lt;/span&gt;username: &#39;admin&#39;&lt;br style=&quot;border-color: var(--border-color);&quot;&gt;}&lt;/b&gt;" style="text;html=1;strokeColor=none;fillColor=none;align=left;verticalAlign=middle;whiteSpace=wrap;rounded=0;strokeWidth=2;" vertex="1" parent="1">
          <mxGeometry x="130" y="253" width="250" height="100" as="geometry" />
        </mxCell>
        <mxCell id="Vm2VVOkwEpax3afobAr5-3" value="" style="shape=curlyBracket;whiteSpace=wrap;html=1;rounded=1;flipH=1;labelPosition=right;verticalLabelPosition=middle;align=left;verticalAlign=middle;rotation=90;strokeWidth=2;" vertex="1" parent="1">
          <mxGeometry x="522.5" y="180.5" width="45" height="210" as="geometry" />
        </mxCell>
        <mxCell id="Vm2VVOkwEpax3afobAr5-4" value="&lt;b&gt;&lt;font style=&quot;font-size: 18px;&quot;&gt;Header.Payload.Signature&lt;/font&gt;&lt;/b&gt;" style="text;html=1;strokeColor=none;fillColor=none;align=center;verticalAlign=middle;whiteSpace=wrap;rounded=0;" vertex="1" parent="1">
          <mxGeometry x="455" y="233" width="180" height="30" as="geometry" />
        </mxCell>
        <mxCell id="Vm2VVOkwEpax3afobAr5-5" value="&lt;b&gt;&lt;font style=&quot;font-size: 18px;&quot;&gt;Header和Signature&lt;br&gt;只是为了保证Token的安全性&lt;br&gt;&lt;/font&gt;&lt;/b&gt;" style="text;html=1;strokeColor=none;fillColor=none;align=center;verticalAlign=middle;whiteSpace=wrap;rounded=0;" vertex="1" parent="1">
          <mxGeometry x="422.5" y="323" width="245" height="30" as="geometry" />
        </mxCell>
        <mxCell id="Vm2VVOkwEpax3afobAr5-8" value="&lt;b&gt;&lt;font style=&quot;font-size: 18px;&quot;&gt;用户信息经过加密后，就是Payload部分对应的字符串&lt;/font&gt;&lt;/b&gt;" style="text;html=1;strokeColor=none;fillColor=none;align=center;verticalAlign=middle;whiteSpace=wrap;rounded=0;" vertex="1" parent="1">
          <mxGeometry x="244" y="140" width="300" height="30" as="geometry" />
        </mxCell>
      </root>
    </mxGraphModel>
  </diagram>
</mxfile>
